# xmcd
#
# Track frame offsets:
#	150
#	19916
#	38463
#	59031
#	79668
#	98175
#	118861
#	139125
#	158604
#	178179
#
# Disc length: 2571 seconds
#
# Revision: 3
# Processed by: cddbd v1.5.2PL0 Copyright (c) Steve Scherf et al.
# Submitted via: EasyCDDAExtractor 12.0.0.1
#
DISCID=810a090a
DTITLE=Amanda Miguel - Amame Una Vez Mas
DYEAR=1996
DGENRE=Latin
TTITLE0=Amame Una Vez Mas (La Ultima Luna)
TTITLE1=Mar Adentro
TTITLE2=Duende
TTITLE3=Donde Estas
TTITLE4=Eso Se Llama Amor
TTITLE5=Media Hora
TTITLE6=Ya Lo Sabias
TTITLE7=Cenizas
TTITLE8=Mi Primer Amor
TTITLE9=No Respondo
EXTD=
EXTT0=
EXTT1=
EXTT2=
EXTT3=
EXTT4=
EXTT5=
EXTT6=
EXTT7=
EXTT8=
EXTT9=
PLAYORDER=
